<mxfile host="app.diagrams.net" modified="2024-05-23T14:52:25.661Z" agent="Mozilla/5.0 (Windows NT 10.0; Win64; x64) AppleWebKit/537.36 (KHTML, like Gecko) Chrome/121.0.0.0 Safari/537.36" etag="ACaGlhX6jarzGushvgTM" version="24.4.6" type="github">
  <diagram name="PÃ¡gina-1" id="0ZC-ZczWQbuKV4G9csUb">
    <mxGraphModel dx="1434" dy="782" grid="1" gridSize="5" guides="1" tooltips="1" connect="1" arrows="1" fold="1" page="1" pageScale="1" pageWidth="827" pageHeight="1169" math="0" shadow="0">
      <root>
        <mxCell id="0" />
        <mxCell id="1" parent="0" />
        <mxCell id="ybQD60OjMRc-PsP_7GtN-18" value="" style="rounded=0;whiteSpace=wrap;html=1;shadow=1;opacity=70;fontSize=7;fontColor=#D4D4D4;glass=0;" vertex="1" parent="1">
          <mxGeometry x="210" y="288" width="432" height="252" as="geometry" />
        </mxCell>
        <mxCell id="ybQD60OjMRc-PsP_7GtN-20" value="Passaword" style="rounded=1;whiteSpace=wrap;html=1;shadow=0;gradientColor=none;fontSize=9;fontColor=#B0B0B0;" vertex="1" parent="1">
          <mxGeometry x="228" y="336" width="168" height="36" as="geometry" />
        </mxCell>
        <mxCell id="ybQD60OjMRc-PsP_7GtN-21" value="&lt;font style=&quot;font-size: 9px;&quot;&gt;Senha&lt;/font&gt;" style="rounded=1;whiteSpace=wrap;html=1;fontColor=#B5B5B5;" vertex="1" parent="1">
          <mxGeometry x="228" y="396" width="168" height="36" as="geometry" />
        </mxCell>
        <mxCell id="ybQD60OjMRc-PsP_7GtN-24" value="" style="verticalLabelPosition=bottom;verticalAlign=top;html=1;shadow=0;dashed=0;strokeWidth=1;shape=mxgraph.android.contact_badge_focused;sketch=0;" vertex="1" parent="1">
          <mxGeometry x="228" y="336" width="36" height="36" as="geometry" />
        </mxCell>
        <mxCell id="ybQD60OjMRc-PsP_7GtN-26" value="" style="verticalLabelPosition=bottom;verticalAlign=top;html=1;shadow=0;dashed=0;strokeWidth=1;shape=mxgraph.android.contact_badge_focused;sketch=0;" vertex="1" parent="1">
          <mxGeometry x="228" y="396" width="36" height="36" as="geometry" />
        </mxCell>
        <mxCell id="ybQD60OjMRc-PsP_7GtN-32" value="&lt;font color=&quot;#ffffff&quot; style=&quot;font-size: 14px;&quot;&gt;Iniciar&lt;/font&gt;" style="strokeWidth=1;shadow=0;dashed=0;align=center;html=1;shape=mxgraph.mockup.buttons.button;mainText=;buttonStyle=round;fontSize=17;fontStyle=1;whiteSpace=wrap;fillColor=#647687;strokeColor=#314354;fontColor=#ffffff;" vertex="1" parent="1">
          <mxGeometry x="250" y="485" width="115" height="35" as="geometry" />
        </mxCell>
        <mxCell id="ybQD60OjMRc-PsP_7GtN-56" value="" style="verticalLabelPosition=bottom;shadow=0;dashed=0;align=center;html=1;verticalAlign=top;strokeWidth=1;shape=mxgraph.mockup.containers.userMale;strokeColor=#666666;strokeColor2=#008cff;" vertex="1" parent="1">
          <mxGeometry x="480" y="340" width="100" height="100" as="geometry" />
        </mxCell>
        <mxCell id="ybQD60OjMRc-PsP_7GtN-64" value="Deseja salvar?" style="shape=ellipse;fillColor=#eeeeee;strokeColor=#999999;gradientColor=#cccccc;html=1;align=left;spacingLeft=4;fontSize=17;fontColor=#666666;labelPosition=right;shadow=0;" vertex="1" parent="1">
          <mxGeometry x="228" y="455" width="10" height="10" as="geometry" />
        </mxCell>
      </root>
    </mxGraphModel>
  </diagram>
</mxfile>
